
<svg xmlns="http://www.w3.org/2000/svg" version="1.1" xmlns:xlink="http://www.w3.org/1999/xlink" preserveAspectRatio="none" x="0px" y="0px" width="16px" height="16px" viewBox="0 0 16 16">
<defs>
<g id="Layer0_0_FILL">
<path fill="#2552F4" stroke="none" d="
M 37.55 14.45
Q 31.1 8 22 8 12.85 8 6.45 14.45 0 20.9 0 30 0 39.15 6.45 45.6 12.85 52 22 52 31.1 52 37.55 45.6 44 39.15 44 30 44 20.9 37.55 14.45
M 22 18
Q 27.35 18 31.2 21.35 35 24.75 35 29.5 35 34.3 31.2 37.65 27.4 41 22 41 19.1099609375 41 16.65 40.05
L 9 41 10.95 35.6
Q 9 32.939453125 9 29.5 9 24.75 12.8 21.35 16.6 18 22 18
M 22 28
Q 21.15 28 20.55 28.6 20 29.15 20 30 20 30.85 20.55 31.45 21.15 32 22 32 22.85 32 23.4 31.45 24 30.85 24 30 24 29.2 23.4 28.6 22.85 28 22 28
M 30 30
Q 30 29.2 29.4 28.6 28.85 28 28 28 27.15 28 26.55 28.6 26 29.15 26 30 26 30.85 26.55 31.45 27.15 32 28 32 28.85 32 29.4 31.45 30 30.85 30 30
M 18 30
Q 18 29.2 17.4 28.6 16.85 28 16 28 15.15 28 14.55 28.6 14 29.15 14 30 14 30.85 14.55 31.45 15.15 32 16 32 16.85 32 17.4 31.45 18 30.85 18 30 Z"/>
</g>
</defs>

<g transform="matrix( 0.3636322021484375, 0, 0, 0.3636322021484375, 0,-2.9) ">
<use xlink:href="#Layer0_0_FILL"/>
</g>
</svg>
